<?xml version="1.0" ?><svg height="60px" version="1.1" viewBox="0 0 60 60" width="60px" xmlns="http://www.w3.org/2000/svg" xmlns:xlink="http://www.w3.org/1999/xlink"><title/><desc/><defs/><g fill="none" fill-rule="evenodd" id="Page-1" stroke="none" stroke-width="1"><g id="Social_icons" transform="translate(-322.000000, -954.000000)"><g id="Bitcoin" transform="translate(322.000000, 954.000000)"><path d="M30,60 C46.5685435,60 60,46.5685435 60,30 C60,13.4314565 46.5685435,0 30,0 C13.4314565,0 0,13.4314565 0,30 C0,46.5685435 13.4314565,60 30,60 Z" fill="#ff9900" id="Oval"/><path d="M42.4796923,25.3329231 C43.0676923,21.4024615 40.0750769,19.2895385 35.9830769,17.88 L37.3104615,12.5556923 L34.0695385,11.748 L32.7772308,16.932 C31.9252308,16.7196923 31.0501538,16.5193846 30.1806154,16.3209231 L31.4821538,11.1027692 L28.2430769,10.2950769 L26.9147692,15.6175385 C26.2095385,15.4569231 25.5172308,15.2981538 24.8452308,15.1310769 L24.8489231,15.1144615 L20.3793846,13.9984615 L19.5172308,17.46 C19.5172308,17.46 21.9218462,18.0110769 21.8710769,18.0452308 C23.1836923,18.3729231 23.4209231,19.2415385 23.3812308,19.9301538 L21.8692308,25.9956923 C21.9596923,26.0187692 22.0769231,26.052 22.2061538,26.1036923 C22.0981538,26.0769231 21.9827692,26.0473846 21.8636923,26.0187692 L19.7443077,34.5156923 C19.5836923,34.9144615 19.1766154,35.5126154 18.2590769,35.2855385 C18.2913846,35.3326154 15.9033846,34.6975385 15.9033846,34.6975385 L14.2944615,38.4073846 L18.512,39.4587692 C19.2966154,39.6553846 20.0655385,39.8612308 20.8224615,40.0550769 L19.4812308,45.4403077 L22.7184615,46.248 L24.0467692,40.92 C24.9310769,41.16 25.7895385,41.3815385 26.6295385,41.5901538 L25.3058462,46.8932308 L28.5467692,47.7009231 L29.888,42.3258462 C35.4144615,43.3716923 39.5701538,42.9498462 41.3193846,37.9513846 C42.7289231,33.9267692 41.2492308,31.6052308 38.3415385,30.0913846 C40.4590769,29.6030769 42.0541538,28.2101538 42.4796923,25.3329231 L42.4796923,25.3329231 Z M35.0747692,35.7166154 C34.0732308,39.7412308 27.2969231,37.5655385 25.1,37.02 L26.8796923,29.8855385 C29.0766154,30.4338462 36.1215385,31.5193846 35.0747692,35.7166154 Z M36.0772308,25.2747692 C35.1633846,28.9356923 29.5233846,27.0756923 27.6938462,26.6196923 L29.3073846,20.1489231 C31.1369231,20.6049231 37.0289231,21.456 36.0772308,25.2747692 L36.0772308,25.2747692 Z" fill="#fff" id="Shape"/></g></g></g></svg>