<?xml version="1.0" encoding="UTF-8" standalone="no"?> <svg xmlns:dc="http://purl.org/dc/elements/1.1/" xmlns:cc="http://creativecommons.org/ns#" xmlns:rdf="http://www.w3.org/1999/02/22-rdf-syntax-ns#" xmlns:svg="http://www.w3.org/2000/svg" xmlns="http://www.w3.org/2000/svg" enable-background="new 0 0 64 64" height="40.740696" version="1.1" viewBox="0 0 36 40.740697" width="36" xml:space="preserve" id="svg2"><defs id="defs8"/><g id="Layer_2" transform="translate(-14,-9.259305)"/><g style="fill:#999999" id="g17" transform="translate(-14,-10.333)"><path style="fill:#999999" id="path19" d="m 21,33.667 c -1.381,0 -2.5,-1.119 -2.5,-2.5 l 0,-7.334 c 0,-7.444 6.056,-13.5 13.5,-13.5 4.599,0 8.837,2.308 11.339,6.172 0.75,1.159 0.419,2.707 -0.74,3.457 -1.16,0.75 -2.707,0.419 -3.457,-0.74 -1.576,-2.435 -4.246,-3.889 -7.142,-3.889 -4.687,0 -8.5,3.813 -8.5,8.5 l 0,7.334 c 0,1.381 -1.119,2.5 -2.5,2.5 z"/></g><g clip-path="none" style="fill:#999999;fill-opacity:1" transform="translate(-14,-9.259305)" id="g25"><path style="fill:#666666;fill-opacity:1" id="path27" d="m 47,25 -30,0 c -1.657,0 -3,1.343 -3,3 l 0,19 c 0,1.657 1.343,3 3,3 l 30,0 c 1.657,0 3,-1.343 3,-3 l 0,-19 c 0,-1.657 -1.343,-3 -3,-3 z M 34,39.445 34,42 c 0,1.105 -0.895,2 -2,2 -1.105,0 -2,-0.895 -2,-2 l 0,-2.555 C 28.809,38.752 28,37.477 28,36 c 0,-2.209 1.791,-4 4,-4 2.209,0 4,1.791 4,4 0,1.477 -0.809,2.752 -2,3.445 z"/></g></svg>