<?xml version="1.0" encoding="UTF-8" standalone="no"?> <svg xmlns:dc="http://purl.org/dc/elements/1.1/" xmlns:cc="http://creativecommons.org/ns#" xmlns:rdf="http://www.w3.org/1999/02/22-rdf-syntax-ns#" xmlns:svg="http://www.w3.org/2000/svg" xmlns="http://www.w3.org/2000/svg" xmlns:sodipodi="http://sodipodi.sourceforge.net/DTD/sodipodi-0.dtd" xmlns:inkscape="http://www.inkscape.org/namespaces/inkscape" id="svg2" xml:space="preserve" width="36" viewBox="0 0 36 41.667" version="1.1" height="41.667" enable-background="new 0 0 64 64" inkscape:version="0.91 r13725" sodipodi:docname="lock.svg"><sodipodi:namedview pagecolor="#ffffff" bordercolor="#666666" borderopacity="1" objecttolerance="10" gridtolerance="10" guidetolerance="10" inkscape:pageopacity="0" inkscape:pageshadow="2" inkscape:window-width="1366" inkscape:window-height="744" id="namedview17" showgrid="false" inkscape:zoom="5.6639547" inkscape:cx="18.70622" inkscape:cy="20.8335" inkscape:window-x="0" inkscape:window-y="24" inkscape:window-maximized="1" inkscape:current-layer="svg2"/><path style="fill:#666666;fill-opacity:1" id="path13" d="m 31.5,20.834 -5,0 0,-7.334 C 26.5,8.813 22.687,5 18,5 13.313,5 9.5,8.813 9.5,13.5 l 0,7.334 -5,0 0,-7.334 C 4.5,6.056 10.556,0 18,0 25.444,0 31.5,6.056 31.5,13.5 l 0,7.334 z" inkscape:connector-curvature="0"/><g id="g25" transform="translate(-14,-10.333)" style="fill:#666666;fill-opacity:1" clip-path="none"><path inkscape:connector-curvature="0" d="m 47,25 -30,0 c -1.657,0 -3,1.343 -3,3 l 0,19 c 0,1.657 1.343,3 3,3 l 30,0 c 1.657,0 3,-1.343 3,-3 l 0,-19 c 0,-1.657 -1.343,-3 -3,-3 z M 34,39.445 34,42 c 0,1.105 -0.895,2 -2,2 -1.105,0 -2,-0.895 -2,-2 l 0,-2.555 C 28.809,38.752 28,37.477 28,36 c 0,-2.209 1.791,-4 4,-4 2.209,0 4,1.791 4,4 0,1.477 -0.809,2.752 -2,3.445 z" id="path27" style="fill:#666666;fill-opacity:1"/></g><g transform="translate(-14,-10.333)" id="Layer_2"/></svg>