<?xml version="1.0" encoding="UTF-8" standalone="no"?><svg xmlns:dc="http://purl.org/dc/elements/1.1/" xmlns:cc="http://creativecommons.org/ns#" xmlns:rdf="http://www.w3.org/1999/02/22-rdf-syntax-ns#" xmlns:svg="http://www.w3.org/2000/svg" xmlns="http://www.w3.org/2000/svg" xml:space="preserve" width="30" viewBox="0 0 30 48" version="1.1" id="Layer_1" height="48" enable-background="new 0 0 48 48"><defs id="defs12"/><g transform="matrix(1.0009801,0,0,1.0009801,-9.0241737,-0.02302117)" id="Layer_3"><g id="g6"><path style="fill:#cccccc" id="path2" d="m 22.507,37.18 c -1.821,0 -3.207,0.455 -4.159,1.365 -0.953,0.91 -1.431,2.255 -1.431,4.031 0,1.716 0.488,3.046 1.462,3.986 0.974,0.943 2.349,1.414 4.128,1.414 1.736,0 3.091,-0.482 4.065,-1.444 0.974,-0.964 1.46,-2.282 1.46,-3.956 0,-1.733 -0.482,-3.067 -1.443,-4 -0.965,-0.93 -2.325,-1.396 -4.082,-1.396 z"/><path style="fill:#cccccc" id="path4" d="M 34.781,3.167 C 32.209,1.071 28.741,0.023 24.381,0.023 19.089,0.023 14.08,1.346 9.36,3.993 l 3.461,6.954 c 4.064,-2.074 7.685,-3.112 10.86,-3.112 1.822,0 3.24,0.36 4.254,1.08 1.018,0.72 1.524,1.768 1.524,3.144 0,1.228 -0.354,2.339 -1.063,3.334 -0.709,0.995 -2.174,2.286 -4.397,3.875 -2.307,1.693 -3.896,3.292 -4.762,4.795 -0.87,1.503 -1.303,3.272 -1.303,5.305 v 2.349 h 8.416 v -1.904 c 0,-1.271 0.271,-2.297 0.811,-3.082 0.539,-0.781 1.824,-1.926 3.857,-3.429 2.963,-2.117 4.975,-4.022 6.033,-5.717 1.059,-1.694 1.59,-3.706 1.59,-6.034 0,-3.492 -1.287,-6.288 -3.86,-8.384 z"/></g></g></svg>