<?xml version="1.0" encoding="UTF-8" standalone="no"?>
<svg
   xmlns:dc="http://purl.org/dc/elements/1.1/"
   xmlns:cc="http://creativecommons.org/ns#"
   xmlns:rdf="http://www.w3.org/1999/02/22-rdf-syntax-ns#"
   xmlns:svg="http://www.w3.org/2000/svg"
   xmlns="http://www.w3.org/2000/svg"
   height="512px"
   id="Layer_1"
   style="enable-background:new 0 0 512 512;"
   version="1.1"
   viewBox="0 0 512 512"
   width="512px"
   xml:space="preserve"><metadata
     id="metadata90"><rdf:RDF><cc:Work
         rdf:about=""><dc:format>image/svg+xml</dc:format><dc:type
           rdf:resource="http://purl.org/dc/dcmitype/StillImage" /><dc:title></dc:title></cc:Work></rdf:RDF></metadata><defs
     id="defs88"><filter
       id="filter860"
       style="color-interpolation-filters:sRGB;"><feColorMatrix
         result="fbSourceGraphic"
         id="feColorMatrix858"
         values="0.21 0.72 0.072 0 0 0.21 0.72 0.072 0 0 0.21 0.72 0.072 0 0 0 0 0 1 0 " /><feColorMatrix
         id="feColorMatrix866"
         values="0 0 0 -1 0 0 0 0 -1 0 0 0 0 -1 0 0 0 0 1 0"
         in="fbSourceGraphic"
         result="fbSourceGraphicAlpha" /><feColorMatrix
         result="fbSourceGraphic"
         in="fbSourceGraphic"
         values="0.21 0.72 0.072 0 0 0.21 0.72 0.072 0 0 0.21 0.72 0.072 0 0 0 0 0 1 0 "
         id="feColorMatrix868" /><feColorMatrix
         id="feColorMatrix874"
         values="0 0 0 -1 0 0 0 0 -1 0 0 0 0 -1 0 0 0 0 1 0"
         in="fbSourceGraphic"
         result="fbSourceGraphicAlpha" /><feColorMatrix
         result="fbSourceGraphic"
         in="fbSourceGraphic"
         values="0.21 0.72 0.072 0 0 0.21 0.72 0.072 0 0 0.21 0.72 0.072 0 0 0 0 0 1 0 "
         id="feColorMatrix876" /><feColorMatrix
         id="feColorMatrix882"
         values="0 0 0 -1 0 0 0 0 -1 0 0 0 0 -1 0 0 0 0 1 0"
         in="fbSourceGraphic"
         result="fbSourceGraphicAlpha" /><feColorMatrix
         in="fbSourceGraphic"
         values="0.21 0.72 0.072 0 0 0.21 0.72 0.072 0 0 0.21 0.72 0.072 0 0 0 0 0 1 0 "
         id="feColorMatrix884" /></filter><filter
       id="filter864"
       style="color-interpolation-filters:sRGB;"><feColorMatrix
         result="fbSourceGraphic"
         id="feColorMatrix862"
         values="0.21 0.72 0.072 0 0 0.21 0.72 0.072 0 0 0.21 0.72 0.072 0 0 0 0 0 1 0 " /><feColorMatrix
         id="feColorMatrix870"
         values="0 0 0 -1 0 0 0 0 -1 0 0 0 0 -1 0 0 0 0 1 0"
         in="fbSourceGraphic"
         result="fbSourceGraphicAlpha" /><feColorMatrix
         result="fbSourceGraphic"
         in="fbSourceGraphic"
         values="0.21 0.72 0.072 0 0 0.21 0.72 0.072 0 0 0.21 0.72 0.072 0 0 0 0 0 1 0 "
         id="feColorMatrix872" /><feColorMatrix
         id="feColorMatrix878"
         values="0 0 0 -1 0 0 0 0 -1 0 0 0 0 -1 0 0 0 0 1 0"
         in="fbSourceGraphic"
         result="fbSourceGraphicAlpha" /><feColorMatrix
         result="fbSourceGraphic"
         in="fbSourceGraphic"
         values="0.21 0.72 0.072 0 0 0.21 0.72 0.072 0 0 0.21 0.72 0.072 0 0 0 0 0 1 0 "
         id="feColorMatrix880" /><feColorMatrix
         id="feColorMatrix886"
         values="0 0 0 -1 0 0 0 0 -1 0 0 0 0 -1 0 0 0 0 1 0"
         in="fbSourceGraphic"
         result="fbSourceGraphicAlpha" /><feColorMatrix
         in="fbSourceGraphic"
         values="0.21 0.72 0.072 0 0 0.21 0.72 0.072 0 0 0.21 0.72 0.072 0 0 0 0 0 1 0 "
         id="feColorMatrix888" /></filter></defs><g
     style="filter:url(#filter860)"
     id="Layer_1_1_"><circle
       cx="256"
       cy="256"
       r="243"
       style="fill:#F5BA3D;"
       id="circle2" /></g><g
     style="filter:url(#filter864)"
     id="Layer_2"><g
       id="Favorite" /><g
       id="g82"><g
         id="g10"><path
           d="M413.223,96.529v397.57c0,4.254-3.405,7.695-7.615,7.695H97.104c-4.21,0-7.615-3.441-7.615-7.695     V96.529c0-4.254,3.405-7.706,7.615-7.706h308.503C409.818,88.823,413.223,92.275,413.223,96.529z"
           style="fill:#125E6E;"
           id="path6" /><path
           d="M413.223,96.529v397.57     c0,4.254-3.405,7.695-7.615,7.695H97.104c-4.21,0-7.615-3.441-7.615-7.695V96.529c0-4.254,3.405-7.706,7.615-7.706h308.503     C409.818,88.823,413.223,92.275,413.223,96.529z"
           style="opacity:0.3;fill:#125E6E;adobe-blending-mode:multiply;enable-background:new    ;"
           id="path8" /></g><path
         d="M413.223,96.713v391.448c0,4.195-3.341,7.58-7.473,7.58H103.015c-4.131,0-7.473-3.384-7.473-7.58    V96.713c0-4.195,3.341-7.59,7.473-7.59H405.75C409.881,89.122,413.223,92.517,413.223,96.713z"
         style="fill:#125E6E;"
         id="path12" /><rect
         height="344.414"
         style="opacity:0.3;adobe-blending-mode:multiply;enable-background:new    ;"
         width="268.29"
         x="115.128"
         y="109.922"
         id="rect14" /><rect
         height="338.361"
         style="fill:#FFFFFF;"
         width="262.237"
         x="121.181"
         y="109.922"
         id="rect16" /><g
         id="g22"><path
           d="M291.704,73.483v16.216c0,4.131-3.352,7.473-7.473,7.473H220.37c-4.121,0-7.473-3.341-7.473-7.473     V73.483c0-0.673,0.085-1.334,0.267-1.954c0.854-3.181,3.758-5.519,7.206-5.519h63.861c3.448,0,6.352,2.338,7.206,5.519     C291.619,72.148,291.704,72.81,291.704,73.483z"
           style="fill:#B2B6BA;"
           id="path18" /><path
           d="M291.704,73.483v16.216     c0,4.131-3.352,7.473-7.473,7.473H220.37c-4.121,0-7.473-3.341-7.473-7.473V73.483c0-0.673,0.085-1.334,0.267-1.954     c0.854-3.181,3.758-5.519,7.206-5.519h63.861c3.448,0,6.352,2.338,7.206,5.519C291.619,72.148,291.704,72.81,291.704,73.483z"
           style="opacity:0.4;fill:#B2B6BA;adobe-blending-mode:multiply;enable-background:new    ;"
           id="path20" /></g><path
         d="M291.704,73.483v16.216    c0,4.131-3.352,7.473-7.473,7.473H220.37c-4.121,0-7.473-3.341-7.473-7.473V73.483c0-0.673,0.085-1.334,0.267-1.954h78.273    C291.619,72.148,291.704,72.81,291.704,73.483z"
         style="opacity:0.5;fill:#B2B6BA;adobe-blending-mode:multiply;enable-background:new    ;"
         id="path24" /><path
         d="M312.628,89.122v28.845    c0,1.964-1.676,3.555-3.779,3.555c-2.028,0-3.672-1.516-3.758-3.416c-0.032,0-0.064,0.011-0.107,0.011h-5.242    c-0.075,1.89-1.719,3.405-3.758,3.405s-3.683-1.516-3.758-3.405h-5.348c-0.075,1.89-1.729,3.405-3.768,3.405    c-2.028,0-3.683-1.516-3.758-3.405h-5.348c-0.075,1.89-1.719,3.405-3.768,3.405c-2.028,0-3.672-1.516-3.747-3.405h-5.348    c-0.085,1.89-1.729,3.405-3.768,3.405c-2.028,0-3.683-1.516-3.758-3.405h-5.348c-0.075,1.89-1.729,3.405-3.768,3.405    c-2.028,0-3.672-1.516-3.758-3.405h-5.348c-0.075,1.89-1.719,3.405-3.758,3.405s-3.683-1.516-3.758-3.405h-5.348    c-0.096,1.89-1.729,3.405-3.768,3.405c-2.028,0-3.683-1.516-3.758-3.405h-5.348c-0.085,1.89-1.729,3.405-3.768,3.405    c-2.028,0-3.672-1.516-3.747-3.405h-5.252c-0.032,0-0.064-0.011-0.107-0.011c-0.075,1.9-1.719,3.416-3.758,3.416    c-2.092,0-3.779-1.591-3.779-3.555V89.122H312.628z"
         style="opacity:0.2;adobe-blending-mode:multiply;enable-background:new    ;"
         id="path26" /><path
         d="M312.628,82.77v34.29c0,1.964-1.644,3.555-3.694,3.555c-1.986,0-3.598-1.516-3.672-3.416    c-0.032,0-0.064,0.011-0.107,0.011h-5.124c-0.075,1.89-1.687,3.405-3.683,3.405c-1.986,0-3.598-1.516-3.672-3.405h-5.231    c-0.075,1.89-1.687,3.405-3.683,3.405c-1.986,0-3.598-1.516-3.672-3.405h-5.231c-0.075,1.89-1.687,3.405-3.683,3.405    c-1.986,0-3.598-1.516-3.672-3.405h-5.231c-0.075,1.89-1.687,3.405-3.683,3.405c-1.986,0-3.598-1.516-3.672-3.405h-5.231    c-0.075,1.89-1.687,3.405-3.683,3.405c-1.986,0-3.598-1.516-3.672-3.405h-5.231c-0.075,1.89-1.687,3.405-3.683,3.405    c-1.986,0-3.598-1.516-3.672-3.405h-5.231c-0.085,1.89-1.687,3.405-3.683,3.405c-1.986,0-3.598-1.516-3.672-3.405h-5.231    c-0.085,1.89-1.687,3.405-3.683,3.405c-1.986,0-3.598-1.516-3.672-3.405h-5.135c-0.032,0-0.064-0.011-0.096-0.011    c-0.075,1.9-1.687,3.416-3.683,3.416c-2.039,0-3.694-1.591-3.694-3.555V82.77c0-2.861,3.352-5.188,7.473-5.188h105.719    C309.286,77.582,312.628,79.909,312.628,82.77z"
         style="fill:#B2B6BA;"
         id="path28" /><path
         d="M312.628,82.77v6.053    c0-2.861-3.341-5.188-7.473-5.188H199.436c-4.121,0-7.473,2.327-7.473,5.188V82.77c0-2.861,3.352-5.188,7.473-5.188h105.719    C309.286,77.582,312.628,79.909,312.628,82.77z"
         style="opacity:0.5;fill:#B2B6BA;adobe-blending-mode:multiply;enable-background:new    ;"
         id="path30" /><rect
         height="6.832"
         style="opacity:0.5;fill:#B2B6BA;adobe-blending-mode:screen;enable-background:new    ;"
         width="120.665"
         x="191.963"
         y="101.548"
         id="rect32" /><rect
         height="113.211"
         style="opacity:0.7;fill:#8DC63F;enable-background:new    ;"
         width="76.337"
         x="143.896"
         y="155.454"
         id="rect34" /><rect
         height="7.116"
         style="opacity:0.7;fill:#9B85BE;enable-background:new    ;"
         width="119.68"
         x="241.581"
         y="155.454"
         id="rect36" /><rect
         height="7.116"
         style="opacity:0.7;fill:#9B85BE;enable-background:new    ;"
         width="119.68"
         x="241.581"
         y="170.586"
         id="rect38" /><rect
         height="7.116"
         style="opacity:0.7;fill:#9B85BE;enable-background:new    ;"
         width="119.68"
         x="241.581"
         y="185.718"
         id="rect40" /><rect
         height="7.116"
         style="opacity:0.7;fill:#9B85BE;enable-background:new    ;"
         width="119.68"
         x="241.581"
         y="200.851"
         id="rect42" /><rect
         height="7.116"
         style="opacity:0.7;fill:#9B85BE;enable-background:new    ;"
         width="119.68"
         x="241.581"
         y="215.983"
         id="rect44" /><rect
         height="7.116"
         style="opacity:0.7;fill:#9B85BE;enable-background:new    ;"
         width="119.68"
         x="241.581"
         y="231.116"
         id="rect46" /><rect
         height="7.116"
         style="opacity:0.7;fill:#9B85BE;enable-background:new    ;"
         width="119.68"
         x="241.581"
         y="246.248"
         id="rect48" /><rect
         height="7.116"
         style="opacity:0.7;fill:#9B85BE;enable-background:new    ;"
         width="119.68"
         x="241.581"
         y="261.381"
         id="rect50" /><rect
         height="7.116"
         style="opacity:0.7;fill:#9B85BE;enable-background:new    ;"
         width="217.365"
         x="143.896"
         y="295.858"
         id="rect52" /><rect
         height="7.116"
         style="opacity:0.7;fill:#9B85BE;enable-background:new    ;"
         width="217.365"
         x="143.896"
         y="310.99"
         id="rect54" /><rect
         height="7.116"
         style="opacity:0.7;fill:#9B85BE;enable-background:new    ;"
         width="217.365"
         x="143.896"
         y="326.123"
         id="rect56" /><rect
         height="7.116"
         style="opacity:0.7;fill:#9B85BE;enable-background:new    ;"
         width="217.365"
         x="143.896"
         y="341.255"
         id="rect58" /><path
         d="M413.223,286.555v32.72    c-17.252,15.65-58.726,53.367-68.462,63.103c-12.373,12.373-29.987,15.223-29.987,15.223l-16.985,2.487L413.223,286.555z"
         style="opacity:0.2;adobe-blending-mode:multiply;enable-background:new    ;"
         id="path60" /><rect
         height="3.558"
         style="opacity:0.7;fill:#9B85BE;enable-background:new    ;"
         width="242.363"
         x="131.397"
         y="432.582"
         id="rect62" /><g
         id="g66"><polygon
           points="317.55,389.49 296.433,401.002 307.937,379.881    "
           style="fill:#4D4D4D;"
           id="polygon64" /></g><path
         d="M393.831,319.056l-71.442,71.442c-2.318,2.318-10.794,4.384-12.637,2.54l-5.356-5.356    c-1.843-1.843,0.222-10.319,2.54-12.637l71.442-71.442c2.318-2.318,5.687-2.699,7.53-0.855l8.771,8.771    C396.53,313.369,396.149,316.738,393.831,319.056z"
         style="fill:#8DC63F;"
         id="path68" /><path
         d="M309.864,393.136    c-0.045-0.03-0.076-0.06-0.113-0.098l-5.352-5.352c-1.849-1.849,0.219-10.319,2.536-12.636l71.449-71.449    c2.318-2.318,5.684-2.695,7.526-0.853l5.563,5.563c-1.842-1.842-5.209-1.464-7.526,0.853l-71.449,71.449    C310.226,382.885,308.195,391.091,309.864,393.136z"
         style="opacity:0.5;fill:#8DC63F;adobe-blending-mode:multiply;enable-background:new    ;"
         id="path70" /><path
         d="M468.867,248.069l-69.723,69.723c-2.156,2.156-5.791,2.02-8.122-0.312l-11.067-11.067    c-2.331-2.331-2.468-5.966-0.312-8.122l69.723-69.723c2.162-2.162,5.797-2.025,8.128,0.306l11.067,11.067    C470.892,242.272,471.029,245.906,468.867,248.069z"
         style="fill:#D51920;"
         id="path72" /><path
         d="M385.947,312.403l-5.994-5.994    c-2.325-2.325-2.461-5.964-0.31-8.115l69.727-69.727c2.159-2.159,5.797-2.023,8.122,0.302l5.994,5.994    c-2.333-2.333-5.964-2.461-8.122-0.302l-69.727,69.727C383.486,306.44,383.614,310.071,385.947,312.403z"
         style="fill:#D51920;adobe-blending-mode:multiply;enable-background:new    ;"
         id="path74" /><path
         d="    M268.993,398.896c2.852-12.797-21.889-13.459-27.412-16.226c10.537,0.711,43.71,29.595,52.886,15.321    c6.945-10.803-4.449-26.632-3.028-30.788c-2.953,8.64-4.881,69.948-20.813,64.636c-7.138-2.38-13.744-25.938-3.416-28.138    c12.804-2.727,16.067,14.55,19.844,15.583c-0.55-2.16,7.652-18.828,10.734-19.191c-4.369,0.515,24.871,14.421,23.882,13.921    c22.905,11.585,5.676-13.469,18.712-13.399c1.592,0.116,6.134,3.423,7.799,4.281"
         style="opacity:0.7;fill:none;stroke:#125E6E;stroke-width:2.1351;stroke-miterlimit:10;enable-background:new    ;"
         id="path76" /><path
         d="M185.953,367.208    c-18.052,0-32.688,14.636-32.688,32.688s14.636,32.688,32.688,32.688c18.063,0,32.699-14.636,32.699-32.688    C218.652,381.844,204.016,367.208,185.953,367.208z M185.953,424.514c-13.59,0-24.618-11.017-24.618-24.618    s11.028-24.628,24.618-24.628c13.601,0,24.628,11.028,24.628,24.628C210.581,413.496,199.553,424.514,185.953,424.514z"
         style="opacity:0.5;fill:#D51920;adobe-blending-mode:multiply;enable-background:new    ;"
         id="path78" /><circle
         cx="185.957"
         cy="399.892"
         r="14.252"
         style="opacity:0.5;fill:#D51920;adobe-blending-mode:multiply;enable-background:new    ;"
         id="circle80" /></g></g></svg>