<?xml version="1.0" encoding="UTF-8" standalone="no"?>
<svg
   xmlns:dc="http://purl.org/dc/elements/1.1/"
   xmlns:cc="http://creativecommons.org/ns#"
   xmlns:rdf="http://www.w3.org/1999/02/22-rdf-syntax-ns#"
   xmlns:svg="http://www.w3.org/2000/svg"
   xmlns="http://www.w3.org/2000/svg"
   id="svg6"
   xml:space="preserve"
   width="27px"
   viewBox="-0.6 -1 27 31"
   version="1.1"
   height="31px"
   enable-background="new -0.6 -1 27 31"><metadata
     id="metadata10"><rdf:RDF><cc:Work
         rdf:about=""><dc:format>image/svg+xml</dc:format><dc:type
           rdf:resource="http://purl.org/dc/dcmitype/StillImage" /><dc:title></dc:title></cc:Work></rdf:RDF></metadata><defs
     id="defs2" /><path
     id="path4"
     fill-rule="evenodd"
     fill="#0D0D0D"
     d="M13.1,29.8L13.1,29.8c-14.8-3.2-13-25-13-25  C7.9,5.7,12.4,0.8,13,0.1V0c0,0,0,0,0,0c0,0,0,0,0,0v0.1c0.6,0.7,5.2,5.6,12.9,4.7C26,4.8,27.9,26.6,13.1,29.8z M23.3,6.5  c-6.2,0.7-9.8-3-10.2-3.6V2.8c0,0,0,0,0,0c0,0,0,0,0,0v0.1C12.5,3.5,8.9,7.2,2.8,6.5c0,0-1.4,18.2,10.3,20.7h0  C24.8,24.7,23.3,6.5,23.3,6.5z M13.1,25.3L13.1,25.3c-0.3-0.1-0.5-0.1-0.7-0.2l8.8-9.7C20.2,19.5,18.1,24.2,13.1,25.3z M8.6,22.9  l13-14.1c0,0.7,0,1.8-0.1,3.1L10.4,24.2C9.7,23.9,9.1,23.4,8.6,22.9z M4.5,8.1c5.1,0.6,8.1-2.5,8.5-3V5c0,0,0,0,0,0c0,0,0,0,0,0v0.1  c0.3,0.4,2.6,2.8,6.5,3.1L7.3,21.3C3.9,16.1,4.5,8.1,4.5,8.1z"
     clip-rule="evenodd" /></svg>