<?xml version="1.0" encoding="UTF-8" standalone="no"?>
<svg
   xmlns:dc="http://purl.org/dc/elements/1.1/"
   xmlns:cc="http://creativecommons.org/ns#"
   xmlns:rdf="http://www.w3.org/1999/02/22-rdf-syntax-ns#"
   xmlns:svg="http://www.w3.org/2000/svg"
   xmlns="http://www.w3.org/2000/svg"
   height="340"
   width="339.99741"
   version="1.1"
   viewBox="0 0 339.99741 340"
   data-name="Layer 2"
   id="Layer_2">
  <defs
     id="defs4">
    <style
       id="style2">.cls-1{fill:#ff9000;}.cls-2{fill:#fff;}.cls-3{fill:#ffba00;}.cls-4{font-size:260px;letter-spacing:-0.03em;}.cls-4,.cls-7{fill:#4e4e4e;font-family:Ubuntu-BoldItalic, Ubuntu;font-style:italic;}.cls-4,.cls-8,.cls-9{font-weight:700;}.cls-5{letter-spacing:-0.04em;}.cls-6{letter-spacing:-0.05em;}.cls-7{font-size:57px;}.cls-12,.cls-9{letter-spacing:0.01em;}.cls-10,.cls-11,.cls-12,.cls-13,.cls-14{font-family:Ubuntu-LightItalic, Ubuntu;}.cls-10{letter-spacing:-0.02em;}.cls-11{letter-spacing:-0.02em;}.cls-13{letter-spacing:-0.01em;}.cls-14{letter-spacing:0.01em;}</style>
  </defs>
  <path
     style="fill:#ff9000"
     id="path8"
     d="m 339.99742,169.06283 a 170,170 0 1 0 -39.66,110.08 l -47.31,-13.14 z"
     class="cls-1" />
  <path
     style="fill:#ffffff"
     id="path10"
     d="m 244.97742,145.78283 c 3.39,-22.62 -13.84,-34.78 -37.39,-42.89 l 7.67,-30.639996 -18.65,-4.65 -7.44,29.83 c -4.9,-1.22 -9.93,-2.37 -14.94,-3.51 l 7.49,-30 -18.64,-4.64 -7.64,30.63 c -4.06,-0.93 -8.05,-1.84 -11.92,-2.8 v -0.1 l -25.73,-6.42 -5,19.919996 c 0,0 13.84,3.17 13.55,3.37 7.59,1.81 8.92,6.81 8.73,10.81 l -8.7,34.91 a 14.91,14.91 0 0 1 1.94,0.62 l -2,-0.49 -12.2,48.9 c -0.93,2.29 -3.27,5.74 -8.55,4.43 0.19,0.27 -13.560006,-3.38 -13.560006,-3.38 l -9.26,21.35 24.280006,6 c 4.51,1.13 8.94,2.31 13.29,3.43 l -7.72,31 18.67,4.69 7.64,-30.66 c 5.09,1.38 10,2.65 14.86,3.85 l -7.61,30.52 18.65,4.65 7.72,-30.93 c 31.8,6 55.72,3.59 65.79,-25.18 8.11,-23.16 -0.41,-36.52 -17.14,-45.23 12.18,-2.81 21.36,-10.83 23.81,-27.39 z m -42.61,59.76 c -5.77,23.16 -44.77,10.64 -57.41,7.5 l 10.24,-41.06 c 12.65,3.16 53.19,9.41 47.17,33.56 z m 5.77,-60.09 c -5.26,21.07 -37.72,10.36 -48.25,7.74 l 9.29,-37.24 c 10.52,2.62 44.43,7.52 38.96,29.5 z"
     class="cls-2" />
</svg>
