<?xml version="1.0" encoding="UTF-8" standalone="no"?> <svg xmlns:dc="http://purl.org/dc/elements/1.1/" xmlns:cc="http://creativecommons.org/ns#" xmlns:rdf="http://www.w3.org/1999/02/22-rdf-syntax-ns#" xmlns:svg="http://www.w3.org/2000/svg" xmlns="http://www.w3.org/2000/svg" height="20" width="26" xml:space="preserve" viewBox="0 0 26 20" version="1.1" id="Layer_1"><defs id="defs11"/><path style="fill:#eee" id="path3" d="M 5,1 4,1 C 3.448,1 3,1.448 3,2 L 6,2 C 6,1.448 5.552,1 5,1 Z"/><circle style="fill:#eee" id="circle5" r="5" cy="11" cx="13"/><path style="fill:#eee" id="path7" d="M 24,3 19.736,3 C 18.978,3 18.286,2.572 17.947,1.894 L 17.553,1.105 C 17.214,0.428 16.521,0 15.764,0 L 10.236,0 C 9.478,0 8.786,0.428 8.447,1.106 L 8.053,1.895 C 7.714,2.572 7.021,3 6.264,3 L 2,3 C 0.895,3 0,3.895 0,5 l 0,13 c 0,1.105 0.895,2 2,2 l 22,0 c 1.105,0 2,-0.895 2,-2 L 26,5 C 26,3.895 25.105,3 24,3 Z M 13,18 C 9.14,18 6,14.86 6,11 6,7.14 9.14,4 13,4 c 3.86,0 7,3.14 7,7 0,3.86 -3.14,7 -7,7 z M 22,7 c -0.552,0 -1,-0.448 -1,-1 0,-0.552 0.448,-1 1,-1 0.552,0 1,0.448 1,1 0,0.552 -0.448,1 -1,1 z"/></svg>