<?xml version="1.0" encoding="UTF-8" standalone="no"?>
<svg
   xmlns:dc="http://purl.org/dc/elements/1.1/"
   xmlns:cc="http://creativecommons.org/ns#"
   xmlns:rdf="http://www.w3.org/1999/02/22-rdf-syntax-ns#"
   xmlns:svg="http://www.w3.org/2000/svg"
   xmlns="http://www.w3.org/2000/svg"
   xml:space="preserve"
   width="415.89999"
   viewBox="0 0 415.89999 384.10001"
   version="1.1"
   id="Layer_1"
   height="384.10001"><defs
     id="defs7" /><path
     style="fill:rgba(255,255,255,0.8)"
     id="path2"
     d="M 413.5,45.7 358.6,2.4 C 356.9,1 354.8,0 352.4,0 350,0 347.8,1 346.1,2.5 L 146.4,259.1 c 0,0 -78.5,-75.5 -80.7,-77.7 -2.2,-2.2 -5.1,-5.9 -9.5,-5.9 -4.4,0 -6.4,3.1 -8.7,5.4 -1.7,1.8 -29.7,31.2 -43.5,45.8 -0.8,0.9 -1.3,1.4 -2,2.1 -1.2,1.7 -2,3.6 -2,5.7 0,2.2 0.8,4 2,5.7 l 2.8,2.6 c 0,0 139.3,133.8 141.6,136.1 2.3,2.3 5.1,5.2 9.2,5.2 4,0 7.3,-4.3 9.2,-6.2 l 249.1,-320 c 1.2,-1.7 2,-3.6 2,-5.8 0,-2.5 -1,-4.6 -2.4,-6.4 z" /></svg>