<?xml version="1.0" encoding="UTF-8" standalone="no"?><svg xmlns:dc="http://purl.org/dc/elements/1.1/" xmlns:cc="http://creativecommons.org/ns#" xmlns:rdf="http://www.w3.org/1999/02/22-rdf-syntax-ns#" xmlns:svg="http://www.w3.org/2000/svg" xmlns="http://www.w3.org/2000/svg" xml:space="preserve" width="383.60303" viewBox="0 0 383.60303 384.10001" version="1.1" id="Layer_1" height="384.10001"><path style="fill:#cccccc" id="path3" d="m 360.5,152.5 -15.2,0 c -12.4,0 -22.8,-10.7 -22.8,-23.4 0,-6.4 2.7,-12.2 7.5,-16.5 l 9.8,-9.6 c 9.7,-9.6 9.7,-25.3 0,-34.9 L 317.5,46 c -4.4,-4.4 -10.9,-7 -17.5,-7 -6.6,0 -13,2.6 -17.5,7 l -9.4,9.4 c -4.5,5 -10.5,7.7 -17,7.7 -12.8,0 -23.5,-10.4 -23.5,-22.7 l 0,-15.3 C 232.6,11.6 221.7,0 208.1,0 l -30.4,0 c -13.6,0 -24.4,11.5 -24.4,25.1 l 0,15.2 c 0,12.3 -10.7,22.7 -23.5,22.7 -6.4,0 -12.3,-2.7 -16.6,-7.4 L 103.5,46 C 99.1,41.5 92.6,39 86,39 79.4,39 73,41.6 68.5,46 L 46,68 c -9.6,9.6 -9.6,25.3 0,34.8 l 9.4,9.4 c 5,4.5 7.8,10.5 7.8,16.9 0,12.8 -10.4,23.4 -22.8,23.4 l -15.2,0 C 11.5,152.5 0,163.2 0,176.8 l 0,15.2 0,15.2 c 0,13.5 11.5,24.3 25.2,24.3 l 15.2,0 c 12.4,0 22.8,10.7 22.8,23.4 0,6.4 -2.8,12.4 -7.8,16.9 l -9.4,9.3 c -9.6,9.6 -9.6,25.3 0,34.8 l 22.3,22.2 c 4.4,4.5 10.9,7 17.5,7 6.6,0 13,-2.6 17.5,-7 l 9.7,-9.6 c 4.2,-4.7 10.2,-7.4 16.6,-7.4 12.8,0 23.5,10.4 23.5,22.7 l 0,15.2 c 0,13.5 10.8,25.1 24.5,25.1 l 30.4,0 c 13.6,0 24.4,-11.5 24.4,-25.1 l 0,-15.2 c 0,-12.3 10.7,-22.7 23.5,-22.7 6.4,0 12.4,2.8 17,7.7 l 9.4,9.4 c 4.5,4.4 10.9,7 17.5,7 6.6,0 13,-2.6 17.5,-7 L 339.6,316 c 9.6,-9.6 9.6,-25.3 0,-34.9 l -9.8,-9.6 c -4.8,-4.3 -7.5,-10.2 -7.5,-16.5 0,-12.8 10.4,-23.4 22.8,-23.4 l 15.2,0 c 13.6,0 23.3,-10.7 23.3,-24.3 l 0,-15.3 0,-15.2 c 0.2,-13.6 -9.5,-24.3 -23.1,-24.3 z m -87.7,39.5 0,0 c 0,44.1 -35.7,80 -80,80 -44.3,0 -80,-35.9 -80,-80 l 0,0 0,0 c 0,-44.1 35.7,-80 80,-80 44.3,0 80,35.9 80,80 l 0,0 z" /></svg>