<?xml version="1.0" encoding="UTF-8" standalone="no"?>
<svg
   xmlns:dc="http://purl.org/dc/elements/1.1/"
   xmlns:cc="http://creativecommons.org/ns#"
   xmlns:rdf="http://www.w3.org/1999/02/22-rdf-syntax-ns#"
   xmlns:svg="http://www.w3.org/2000/svg"
   xmlns="http://www.w3.org/2000/svg"
   xml:space="preserve"
   enable-background="new 0 0 226.777 226.777"
   viewBox="0 0 216.78101 225.11001"
   height="225.11"
   width="216.78101"
   y="0px"
   x="0px"
   id="Layer_1"
   version="1.1"><metadata
     id="metadata16"><rdf:RDF><cc:Work
         rdf:about=""><dc:format>image/svg+xml</dc:format><dc:type
           rdf:resource="http://purl.org/dc/dcmitype/StillImage" /><dc:title></dc:title></cc:Work></rdf:RDF></metadata><defs
     id="defs14"><filter
       id="Blurx"><feGaussianBlur
         id="feGaussianBlur2"
         stdDeviation="0.4"
         in="SourceGraphic" /></filter><filter
       id="Blurx-3"><feGaussianBlur
         id="feGaussianBlur2-6"
         stdDeviation="0.4"
         in="SourceGraphic" /></filter><filter
       height="1.0509214"
       y="-0.02546072"
       width="1.1018429"
       x="-0.050921439"
       id="filter4683"
       style="color-interpolation-filters:sRGB"><feGaussianBlur
         id="feGaussianBlur4685"
         stdDeviation="0.42434533" /></filter></defs><path
     transform="matrix(8.6955822,0,0,4.5213514,-104.95583,3.563782)"
     style="opacity:1;fill:#222222;fill-opacity:1;filter:url(#filter4683)"
     id="use8"
     d="m 15,28 h 9 L 20,45 35,22 H 26 L 30,5" /><path
     id="path10"
     d="M 0,126.59757 H 86.955822 L 43.47791,212.50325 208.69397,90.426758 H 121.73815 L 165.21606,-2.7198965e-4"
     style="fill:#eecc00;stroke-width:6.27022982" /><path
     style="fill:#eecc00;stroke-width:6.27022982"
     id="use12"
     d="m 17.391163,122.07622 h 78.26024 L 60.869074,198.93919 191.30281,94.948108 H 113.04257 L 147.8249,18.085134" /><path
     id="path14"
     d="M 147.8249,18.085134 17.391163,122.07622 60.869074,108.51216"
     style="fill:#ffffee;stroke-width:6.27022982" /><path
     id="path16"
     d="m 139.12931,108.51216 52.1735,-13.564052 H 113.04257 L 60.869075,108.51216 h 78.260235 l -78.260235,90.42703 34.782328,-76.86297"
     style="fill:#ffffcc;stroke-width:6.27022982" /><path
     id="path18"
     d="M 60.869074,108.51216 113.04257,94.948108 147.8249,18.085134 60.869074,108.51216 H 139.12931 L 60.869074,198.93919 191.30281,94.948108 139.12931,108.51216"
     style="fill:#bbaa00;stroke-width:6.27022982" /></svg>